<svg width="19" height="21" viewBox="0 0 19 21" fill="none" xmlns="http://www.w3.org/2000/svg">
<path fill-rule="evenodd" clip-rule="evenodd" d="M11.9428 3.49952C11.9429 2.68183 12.2316 1.88999 12.7589 1.26142C13.2861 0.632844 14.0187 0.207226 14.8293 0.0584365C15.6399 -0.0903535 16.4775 0.0470769 17.1967 0.446874C17.9158 0.846672 18.4711 1.4836 18.7662 2.2471C19.0613 3.01061 19.0775 3.8525 18.8121 4.62664C18.5467 5.40078 18.0164 6.05832 17.3132 6.48511C16.61 6.9119 15.7783 7.08102 14.9625 6.9631C14.1467 6.84517 13.3983 6.44767 12.8472 5.83956L9.89727 7.43549L6.59667 9.30602C7.05857 10.1114 7.17961 11.0656 6.93324 11.9594L12.8472 15.1588C13.4258 14.5212 14.2203 14.1166 15.0799 14.0218C15.9395 13.927 16.8042 14.1486 17.5099 14.6445C18.2156 15.1404 18.7131 15.8762 18.9079 16.712C19.1027 17.5478 18.9812 18.4254 18.5665 19.1782C18.1518 19.931 17.4728 20.5065 16.6585 20.7955C15.8442 21.0844 14.9512 21.0667 14.1492 20.7456C13.3472 20.4245 12.692 19.8225 12.308 19.0538C11.9241 18.2851 11.8382 17.4034 12.0666 16.576L6.1526 13.3777C5.70189 13.8749 5.11701 14.2336 4.46717 14.4115C3.81733 14.5893 3.12972 14.5788 2.48571 14.3812C1.8417 14.1836 1.26824 13.8071 0.833182 13.2964C0.398128 12.7856 0.119687 12.162 0.0308061 11.4992C-0.0580748 10.8364 0.0463246 10.1622 0.331651 9.55641C0.616977 8.95062 1.07129 8.43858 1.64083 8.08087C2.21037 7.72315 2.8713 7.53474 3.54542 7.53793C4.21954 7.54111 4.87863 7.73576 5.44471 8.09884L9.10361 6.02478L12.0666 4.42132C11.9848 4.12076 11.9432 3.81084 11.9428 3.49952ZM15.4714 1.61499C14.9675 1.61499 14.4842 1.81354 14.1279 2.16695C13.7716 2.52037 13.5714 2.99971 13.5714 3.49952C13.5714 3.99932 13.7716 4.47866 14.1279 4.83208C14.4842 5.1855 14.9675 5.38404 15.4714 5.38404C15.9753 5.38404 16.4586 5.1855 16.8149 4.83208C17.1712 4.47866 17.3714 3.99932 17.3714 3.49952C17.3714 2.99971 17.1712 2.52037 16.8149 2.16695C16.4586 1.81354 15.9753 1.61499 15.4714 1.61499ZM3.52841 9.1531C3.02449 9.1531 2.54121 9.35165 2.18489 9.70506C1.82857 10.0585 1.62839 10.5378 1.62839 11.0376C1.62839 11.5374 1.82857 12.0168 2.18489 12.3702C2.54121 12.7236 3.02449 12.9222 3.52841 12.9222C4.03232 12.9222 4.5156 12.7236 4.87192 12.3702C5.22825 12.0168 5.42843 11.5374 5.42843 11.0376C5.42843 10.5378 5.22825 10.0585 4.87192 9.70506C4.5156 9.35165 4.03232 9.1531 3.52841 9.1531ZM13.5714 17.4989C13.5714 16.9991 13.7716 16.5197 14.1279 16.1663C14.4842 15.8129 14.9675 15.6143 15.4714 15.6143C15.9753 15.6143 16.4586 15.8129 16.8149 16.1663C17.1712 16.5197 17.3714 16.9991 17.3714 17.4989C17.3714 17.9987 17.1712 18.478 16.8149 18.8314C16.4586 19.1848 15.9753 19.3834 15.4714 19.3834C14.9675 19.3834 14.4842 19.1848 14.1279 18.8314C13.7716 18.478 13.5714 17.9987 13.5714 17.4989Z" fill="#7D7D7D"/>
</svg>
